<svg width="50" height="80" viewBox="0 0 50 80" fill="none" xmlns="http://www.w3.org/2000/svg">
<path id="Vector" d="M23.4615 77.4789C22.1368 73.8926 20.5021 70.9331 18.5577 68.6003C16.6132 66.2674 14.0385 64.1919 10.8333 62.3737C9.80769 62.4822 8.80342 62.5775 7.82051 62.6595C6.83761 62.7415 5.87607 62.7825 4.9359 62.7825C5.44872 64.7912 6.25 66.6769 7.33974 68.4397C8.42949 70.2024 9.80769 71.7192 11.4744 72.99C13.141 74.2608 14.9679 75.2652 16.9551 76.0031C18.9423 76.741 21.1111 77.2329 23.4615 77.4789ZM26.6667 77.4789C30.8547 77.1509 34.3174 76.0646 37.0549 74.2198C39.7923 72.3751 41.8543 69.731 43.2408 66.2875C43.3452 65.4676 43.3547 64.535 43.2692 63.4896C43.1838 62.4443 42.9274 61.3477 42.5 60.1998C40.5546 61.0197 38.7788 62.0343 37.1724 63.2437C35.5661 64.453 34.1508 65.7341 32.9264 67.0869C31.531 68.6036 30.315 70.2229 29.2785 71.9447C28.2418 73.6664 27.3712 75.5111 26.6667 77.4789ZM25.0641 37.94C30.5769 37.94 35.2991 36.0748 39.2308 32.3444C43.1624 28.6139 45.1282 24.1045 45.1282 18.8163V7.56341L35.5128 15.4343L25.0641 1.96772L14.7436 15.4343L5.1282 7.56341V18.8163C5.1282 24.1045 7.07265 28.6139 10.9615 32.3444C14.8504 36.0748 19.5513 37.94 25.0641 37.94ZM24.0385 80C17.3468 80 11.6675 77.7616 7.00051 73.2847C2.3335 68.8078 0 63.3598 0 56.9408V54.1737C5.17094 55.2396 9.86111 57.32 14.0705 60.4151C18.2799 63.5101 21.3675 67.1893 23.3333 71.4527V40.7071C17.3932 40.2972 12.4038 38.0118 8.36538 33.8509C4.32692 29.69 2.30769 24.6785 2.30769 18.8163V8.97771C2.30769 7.52808 2.9594 6.50978 4.26282 5.92283C5.56624 5.33579 6.83761 5.5342 8.07692 6.51806L14.359 11.6218L22.2436 1.29131C22.9906 0.430438 23.9359 0 25.0795 0C26.2231 0 27.1581 0.430438 27.8846 1.29131L35.8974 11.6218L42.1795 6.51806C43.3333 5.5342 44.5833 5.33579 45.9295 5.92283C47.2756 6.50978 47.9487 7.52808 47.9487 8.97771V18.8163C47.9487 24.6785 45.9081 29.69 41.8269 33.8509C37.7457 38.0118 32.7778 40.2972 26.9231 40.7071V71.2683C28.8034 67.1279 31.8376 63.5101 36.0256 60.4151C40.2137 57.32 44.8718 55.2396 50 54.1737V56.9408C50 63.3598 47.6576 68.8078 42.9728 73.2847C38.2879 77.7616 32.6175 80 25.9615 80H24.0385Z" fill="#D0D4C4"/>
</svg>
